<?xml version="1.0" ?><svg xmlns="http://www.w3.org/2000/svg" id="Layer_1" data-name="Layer 1" viewBox="0 0 128 128"><path fill="#EE0000" d="m39.19,30.59c.49-1.17,1.11-2.23,1.88-3.16.83-1,1.81-1.86,2.95-2.59,1.87-1.19,4.14-1.98,6.8-2.39,3.99-.61,9.06-.34,15.21.8,3.08.57,6.05,1.31,8.89,2.24,3.34,1.09,6.33,2.37,8.96,3.83,3.12,1.74,5.66,3.71,7.63,5.9,1.92,2.14,3.27,4.46,4.04,6.96.17.55.32,1.11.43,1.68.4,1.93.96,4.53,1.72,7.77.82,3.56,1.48,6.62,1.98,9.19.14,2.02,0,3.77-.56,5.17-.17.43-.37.83-.62,1.21-.51.79-1.18,1.48-2.02,2.07-2.72,1.92-7.19,2.88-13.4,2.88-5.26,0-11-.88-17.24-2.63-5.47-1.55-10.69-3.58-15.67-6.1-.38-.19-.77-.39-1.15-.59-5.21-2.75-9.33-5.6-12.37-8.57-1.62-1.59-3.25-3.41-3.94-5.58,2.15-6.04,4.04-12.17,6.48-18.09Zm-14.7,19.98c-2.78.69-5.51,1.86-7.7,3.66-1.53,1.35-3.1,3.22-3.88,4.91-.4.86-.7,1.77-.9,2.71-.09.42-.16.83-.21,1.24-.31,2.67.2,5.43,1.51,8.29,1.54,3.33,4.16,6.67,7.86,10.02,3.63,3.29,8.09,6.37,13.38,9.26,4.96,2.7,10.37,5.08,16.23,7.13,5.72,2.01,11.45,3.56,17.2,4.66,5.88,1.12,11.33,1.68,16.36,1.68,6.57,0,12.3-.98,17.19-2.95,4.64-1.86,8.26-4.47,10.85-7.84,1.16-1.49,2.06-3.09,2.71-4.78.4-1.12.84-2.69,1-3.85.11-.72.17-1.44.18-2.17.01-.7-.02-1.39-.1-2.08-.12-1.18-.37-2.35-.74-3.51-.08-.24-.15-.48-.24-.71-.57-1.57-1.36-3.06-2.36-4.47-.79-1.12-1.66-2.19-2.58-3.19-.54-.58-1.09-1.15-1.67-1.69-.89-.84-2.33-.29-2.73.87-.08.28-.18.55-.29.81-.43,1.06-.96,2.04-1.6,2.94-.93,1.3-2.09,2.45-3.49,3.43-3.92,2.76-9.71,4.14-17.39,4.14-5.9,0-12.27-.96-19.12-2.89-5.7-1.61-11.16-3.71-16.38-6.31-.6-.3-1.2-.6-1.79-.92-5.81-3.05-10.47-6.3-13.99-9.75-2.62-2.56-4.42-5.08-5.39-7.55-.31-.78-1.11-1.29-1.92-1.09Z"/></svg>
